<svg id="Layer_1" data-name="Layer 1" xmlns="http://www.w3.org/2000/svg" viewBox="0 0 344.25 105.09"><defs><style>.cls-1{fill:#fff;}.cls-2{fill:none;stroke:#fff;stroke-width:1.22px;}</style></defs><title>Germanna logo white</title><path class="cls-1" d="M135.69,32.12l-2.37,2.24a18.18,18.18,0,0,0-5.62-3.83,15.22,15.22,0,0,0-6-1.29A14.16,14.16,0,0,0,114.89,31a12.84,12.84,0,0,0-5.06,4.79,12.41,12.41,0,0,0-1.79,6.4,12.66,12.66,0,0,0,1.85,6.56A13.26,13.26,0,0,0,115,53.64a14.78,14.78,0,0,0,7.16,1.77,12.27,12.27,0,0,0,8-2.65,10.46,10.46,0,0,0,3.87-6.89h-9.76v-3h13.2q0,7.08-4.21,11.25c-2.78,2.77-6.5,4.17-11.16,4.17q-8.49,0-13.44-5.79a15.41,15.41,0,0,1-3.8-10.3,15.84,15.84,0,0,1,2.18-8.09,15.61,15.61,0,0,1,6-5.86,17.55,17.55,0,0,1,8.62-2.11A19.09,19.09,0,0,1,129,27.59,21.81,21.81,0,0,1,135.69,32.12Z" transform="translate(-8.23 -11.21)"/><path class="cls-1" d="M143.33,27h17.56v3H146.38v9.6h14.37v3H146.38v12h14.37v3H143.33Z" transform="translate(-8.23 -11.21)"/><path class="cls-1" d="M166.31,27h6.09a37.88,37.88,0,0,1,6.91.41,7.92,7.92,0,0,1,4.43,2.68,7.63,7.63,0,0,1,1.71,5.05,8.23,8.23,0,0,1-1.18,4.4,7.34,7.34,0,0,1-3.36,2.86,15.3,15.3,0,0,1-6,1l11,14.2h-3.78l-11-14.2h-1.73v14.2h-3.05Zm3.05,3v10.4l5.27,0a13.09,13.09,0,0,0,4.54-.59A4.68,4.68,0,0,0,181.46,38a5.16,5.16,0,0,0,.82-2.86,4.94,4.94,0,0,0-.83-2.8,4.69,4.69,0,0,0-2.19-1.8,13.62,13.62,0,0,0-4.51-.54Z" transform="translate(-8.23 -11.21)"/><path class="cls-1" d="M190.61,57.55,195,27h.51L208,52.06,220.29,27h.49l4.41,30.59h-3l-3.05-21.88L208.32,57.55h-.8l-10.93-22-3,22Z" transform="translate(-8.23 -11.21)"/><path class="cls-1" d="M243.65,27l14.28,30.59h-3.3l-4.78-10H236.61l-4.75,10h-3.41L242.9,27Zm-.39,6.45L238,44.54h10.5Z" transform="translate(-8.23 -11.21)"/><path class="cls-1" d="M262.68,57.55V27h.67L283.7,50.39V27h3V57.55H286l-20.2-23.17V57.55Z" transform="translate(-8.23 -11.21)"/><path class="cls-1" d="M294.2,57.55V27h.66l20.36,23.43V27h3V57.55h-.69l-20.2-23.17V57.55Z" transform="translate(-8.23 -11.21)"/><path class="cls-1" d="M338.19,27l14.28,30.59h-3.3l-4.79-10H331.15l-4.75,10H323L337.44,27Zm-.39,6.45-5.26,11.13h10.51Z" transform="translate(-8.23 -11.21)"/><path class="cls-1" d="M132.92,67.24l-1.21,1.05a7,7,0,0,0-2.43-2.23,6.42,6.42,0,0,0-3.11-.76,6.23,6.23,0,0,0-3.42,1A6.78,6.78,0,0,0,120.3,69a8.23,8.23,0,0,0-.87,3.79,7.52,7.52,0,0,0,1.95,5.29,6.31,6.31,0,0,0,4.89,2.12,6.61,6.61,0,0,0,5.44-2.85l1.21,1A8,8,0,0,1,130,80.91a8.27,8.27,0,0,1-3.87.91,7.66,7.66,0,0,1-6.4-3,9.85,9.85,0,0,1-2-6.18,9.21,9.21,0,0,1,2.38-6.42,7.77,7.77,0,0,1,6-2.59,8,8,0,0,1,3.91,1A7.76,7.76,0,0,1,132.92,67.24Z" transform="translate(-8.23 -11.21)"/><path class="cls-1" d="M143.4,63.59a7.57,7.57,0,0,1,5.88,2.63,10,10,0,0,1,0,12.94,7.41,7.41,0,0,1-5.75,2.66,7.51,7.51,0,0,1-5.81-2.65,9.22,9.22,0,0,1-2.36-6.39,10.11,10.11,0,0,1,1.07-4.64,8.49,8.49,0,0,1,2.94-3.35A7.28,7.28,0,0,1,143.4,63.59Zm.07,1.68a5.88,5.88,0,0,0-3.25,1,6.93,6.93,0,0,0-2.4,2.71,8.32,8.32,0,0,0-.86,3.79A7.53,7.53,0,0,0,138.87,78a6,6,0,0,0,4.6,2.13,6,6,0,0,0,3.32-1,6.68,6.68,0,0,0,2.39-2.68,8.34,8.34,0,0,0,.86-3.78,8.08,8.08,0,0,0-.86-3.74,6.86,6.86,0,0,0-2.41-2.68A6.07,6.07,0,0,0,143.47,65.27Z" transform="translate(-8.23 -11.21)"/><path class="cls-1" d="M154.05,81.38,156.25,64h.28l6.28,14.25L169,64h.25l2.22,17.36H170L168.47,69,163,81.38h-.41l-5.52-12.52-1.53,12.52Z" transform="translate(-8.23 -11.21)"/><path class="cls-1" d="M173.84,81.38,176.05,64h.27l6.28,14.25L188.83,64h.26l2.22,17.36H189.8L188.26,69l-5.47,12.43h-.41l-5.52-12.52-1.52,12.52Z" transform="translate(-8.23 -11.21)"/><path class="cls-1" d="M194.39,64h1.55V74.5a21,21,0,0,0,.07,2.32,4.06,4.06,0,0,0,.53,1.72,3.17,3.17,0,0,0,1.29,1.15,3.75,3.75,0,0,0,1.76.47,3.06,3.06,0,0,0,1.47-.37,3.27,3.27,0,0,0,1.18-1,4.52,4.52,0,0,0,.7-1.57,15.29,15.29,0,0,0,.15-2.71V64h1.55V74.5a14.34,14.34,0,0,1-.4,3.76,5.1,5.1,0,0,1-1.62,2.49,4.34,4.34,0,0,1-3,1.07,5.16,5.16,0,0,1-3.2-1,4.82,4.82,0,0,1-1.8-2.65,15.8,15.8,0,0,1-.28-3.66Z" transform="translate(-8.23 -11.21)"/><path class="cls-1" d="M208.45,81.38V64h.34l10.29,13.3V64h1.53V81.38h-.35l-10.2-13.14V81.38Z" transform="translate(-8.23 -11.21)"/><path class="cls-1" d="M224.15,64h1.55V81.38h-1.55Z" transform="translate(-8.23 -11.21)"/><path class="cls-1" d="M227.71,65.72V64h8.47v1.7h-3.45V81.38h-1.58V65.72Z" transform="translate(-8.23 -11.21)"/><path class="cls-1" d="M237.19,64H239l4,7.18L246.84,64h1.79l-4.91,9.06v8.3H242.2v-8.3Z" transform="translate(-8.23 -11.21)"/><path class="cls-1" d="M271.53,67.24l-1.22,1.05a7,7,0,0,0-2.42-2.23,6.45,6.45,0,0,0-3.11-.76,6.26,6.26,0,0,0-3.43,1A6.69,6.69,0,0,0,258.91,69a8.11,8.11,0,0,0-.87,3.79A7.55,7.55,0,0,0,260,78.05a6.31,6.31,0,0,0,4.89,2.12,6.59,6.59,0,0,0,5.44-2.85l1.22,1a8.11,8.11,0,0,1-2.89,2.55,8.23,8.23,0,0,1-3.86.91,7.68,7.68,0,0,1-6.41-3,9.84,9.84,0,0,1-2-6.18,9.16,9.16,0,0,1,2.38-6.42,7.77,7.77,0,0,1,6-2.59,8,8,0,0,1,3.91,1A7.83,7.83,0,0,1,271.53,67.24Z" transform="translate(-8.23 -11.21)"/><path class="cls-1" d="M282,63.59a7.57,7.57,0,0,1,5.88,2.63,10,10,0,0,1,0,12.94,7.62,7.62,0,0,1-11.56,0A9.18,9.18,0,0,1,274,72.78,10.24,10.24,0,0,1,275,68.14,8.65,8.65,0,0,1,278,64.79,7.33,7.33,0,0,1,282,63.59Zm.07,1.68a5.91,5.91,0,0,0-3.25,1A6.76,6.76,0,0,0,276.43,69a8.2,8.2,0,0,0-.87,3.79A7.58,7.58,0,0,0,277.47,78a6,6,0,0,0,4.6,2.13,6.08,6.08,0,0,0,3.33-1,6.66,6.66,0,0,0,2.38-2.68,8.21,8.21,0,0,0,.86-3.78,8,8,0,0,0-.86-3.74,6.78,6.78,0,0,0-2.41-2.68A6,6,0,0,0,282.07,65.27Z" transform="translate(-8.23 -11.21)"/><path class="cls-1" d="M293.35,64h1.56V79.7h5.94v1.68h-7.5Z" transform="translate(-8.23 -11.21)"/><path class="cls-1" d="M303.3,64h1.56V79.7h5.93v1.68H303.3Z" transform="translate(-8.23 -11.21)"/><path class="cls-1" d="M313.26,64h8.88v1.7h-7.32v5.44h7.25v1.7h-7.25v6.82h7.25v1.7h-8.81Z" transform="translate(-8.23 -11.21)"/><path class="cls-1" d="M339.72,66.94l-1.19,1.28a9.13,9.13,0,0,0-2.84-2.17,6.94,6.94,0,0,0-3-.74,6.58,6.58,0,0,0-3.47,1A6.9,6.9,0,0,0,326.68,69a7.64,7.64,0,0,0-.91,3.63,7.76,7.76,0,0,0,.94,3.72,7,7,0,0,0,2.58,2.77,6.84,6.84,0,0,0,3.62,1,5.77,5.77,0,0,0,4-1.51,6.13,6.13,0,0,0,1.95-3.91H334V73.06h6.67a9.4,9.4,0,0,1-2.13,6.39,7.21,7.21,0,0,1-5.64,2.37,8.12,8.12,0,0,1-6.8-3.29,9.38,9.38,0,0,1-1.92-5.84,9.79,9.79,0,0,1,1.11-4.59,8.32,8.32,0,0,1,3-3.32,8.09,8.09,0,0,1,4.35-1.19,8.78,8.78,0,0,1,3.7.79A11.15,11.15,0,0,1,339.72,66.94Z" transform="translate(-8.23 -11.21)"/><path class="cls-1" d="M343.6,64h8.87v1.7h-7.32v5.44h7.25v1.7h-7.25v6.82h7.25v1.7h-8.8Z" transform="translate(-8.23 -11.21)"/><path class="cls-1" d="M49.82,109.32a49.53,49.53,0,0,0,17.63-3.41c9.34-3.57,16.72-9.11,21.94-16.47a32.67,32.67,0,0,0,2-3.23L96,96.68,113.48,89,92.59,40.64l-.38-.93L43.65,58.3l-1,.37.37,1,6.28,16.48.37,1,1-.37L73.51,68C73.44,76.56,69,82.43,59.82,85.91a25.65,25.65,0,0,1-9.1,1.83,19.17,19.17,0,0,1-9.42-2.46c-5.17-2.85-9.14-7.83-11.81-14.82a23.62,23.62,0,0,1,0-18A21.71,21.71,0,0,1,42.44,40.3c.4-.16,1.05-.37,1.87-.61l.74-.22V22.08l-.19-3.54-.06-1.22-1.2.27A83,83,0,0,0,35.06,20c-11.77,4.49-20.52,12.12-26,22.64l-.49.94-.11.23V82.62l.08.19.13.3c.12.29.24.58.37.84a44.07,44.07,0,0,0,22.43,21.43,45.66,45.66,0,0,0,18.34,3.94" transform="translate(-8.23 -11.21)"/><rect class="cls-2" x="0.61" y="0.61" width="83.08" height="103.87"/></svg>